<svg width="96" height="96" viewBox="0 0 3.84 3.84" fill="none" xmlns="http://www.w3.org/2000/svg"><path d="M3.323 2.76a.268.268 0 0 0 .037-.127V1.207a.265.265 0 0 0-.037-.127l-1.403.84 1.403.84Z" fill="#7F3A86"/><path d="m2.045 3.569 1.191-.713a.26.26 0 0 0 .088-.097L1.92 1.92l-1.403.84a.268.268 0 0 0 .088.097l1.191.713a.267.267 0 0 0 .249 0Z" fill="#662579"/><path d="M3.323 1.08a.268.268 0 0 0-.088-.097L2.044.27a.267.267 0 0 0-.249 0L.605.983a.288.288 0 0 0-.125.224v1.426c0 .041.014.087.037.127l1.403-.84 1.403-.84Z" fill="#9A5196"/><path d="M1.925 2.88c-.532 0-.965-.431-.965-.96s.433-.96.965-.96a.969.969 0 0 1 .826.463l-.413.248a.485.485 0 0 0-.413-.231.481.481 0 1 0 0 .96.485.485 0 0 0 .412-.23l.414.246a.969.969 0 0 1-.826.464Z" fill="#fff"/><path fill-rule="evenodd" clip-rule="evenodd" d="M3 1.56v.12h-.24v-.12h-.12v.12h-.12v.12h.12v.239h-.12v.121h.12v.12h.12v-.12H3v.12h.12v-.12h.12v-.12h-.12V1.8h.12v-.12h-.12v-.12H3Zm0 .48V1.8h-.24v.239L3 2.04Z" fill="#fff"/></svg>