<svg width="96" height="96" viewBox="-7.04 0 96 96" xmlns="http://www.w3.org/2000/svg" preserveAspectRatio="xMidYMid"><path d="M3.387 50.051V39.57h2.284v11.282a6.817 6.817 0 0 1-1.5 5.112 5.828 5.828 0 0 1-3.886 1.415l-.238-1.704a3.715 3.715 0 0 0 2.488-.954c.613-.716.852-1.687.852-4.669Zm17.03-1.344c0 1.278 0 2.42.102 3.408h-2.028l-.136-2.028a4.721 4.721 0 0 1-4.141 2.317c-1.977 0-4.329-1.074-4.329-5.453v-7.277h2.284v6.817c0 2.369.733 3.954 2.795 3.954a3.187 3.187 0 0 0 3.221-3.221v-7.635h2.284v9.049l-.051.068Zm4.329-4.978c0-1.585 0-2.88-.102-4.056h2.045l.102 2.13a4.942 4.942 0 0 1 4.465-2.42c3.034 0 5.317 2.539 5.317 6.322 0 4.465-2.744 6.681-5.709 6.681a4.414 4.414 0 0 1-3.869-1.96v6.817h-2.25V43.729Zm2.25 3.323c.006.309.04.617.102.92a3.51 3.51 0 0 0 3.408 2.642c2.403 0 3.818-1.96 3.818-4.806 0-2.488-1.33-4.618-3.732-4.618a3.92 3.92 0 0 0-3.596 3.732v2.13Zm13.646-7.39 2.744 7.345a42.455 42.455 0 0 1 .801 2.539c.238-.75.494-1.704.801-2.59l2.488-7.294h2.403l-3.408 8.861c-1.704 4.26-2.744 6.459-4.312 7.788a6.203 6.203 0 0 1-2.795 1.466l-.562-1.909a6.05 6.05 0 0 0 1.994-1.108 6.817 6.817 0 0 0 1.926-2.522c.093-.17.156-.354.187-.545a1.96 1.96 0 0 0-.153-.596l-4.635-11.469h2.488l.034.034Zm15.299-3.575v3.579h3.272v1.704h-3.272v6.715c0 1.534.443 2.42 1.704 2.42.448.007.895-.044 1.329-.154l.102 1.704a5.624 5.624 0 0 1-2.028.307 3.17 3.17 0 0 1-2.471-.955 4.584 4.584 0 0 1-.886-3.238v-6.817h-1.942v-1.704h1.977v-3.034l2.216-.528Zm7.478 10.201a4.005 4.005 0 0 0 4.312 4.311 8.316 8.316 0 0 0 3.408-.648l.392 1.704a10.225 10.225 0 0 1-4.175.767 5.794 5.794 0 0 1-6.169-6.271c0-3.749 2.232-6.714 5.879-6.714 4.09 0 5.113 3.579 5.113 5.862.022.352.022.705 0 1.057h-8.811l.051-.068Zm6.681-1.704a3.22 3.22 0 0 0-3.17-3.681 3.766 3.766 0 0 0-3.493 3.681H70.1Zm5.544-1.046c0-1.466 0-2.726-.102-3.885h2.045v2.437h.102a3.766 3.766 0 0 1 3.408-2.727 2.488 2.488 0 0 1 .648 0v2.13a3.406 3.406 0 0 0-.784 0 3.187 3.187 0 0 0-3.051 2.897 6.245 6.245 0 0 0-.102 1.057v6.629h-2.249v-8.521l.085-.017Z" fill="#4E4E4E"/><path d="M74.643 5.428A5.777 5.777 0 1 1 68.627.009a5.709 5.709 0 0 1 6.016 5.419Z" fill="#767677"/><path d="M40.945 72.173c-15.338 0-28.818-5.504-35.788-13.633a38.156 38.156 0 0 0 71.575 0c-6.953 8.129-20.382 13.633-35.788 13.633Zm0-52.86c15.338 0 28.818 5.505 35.788 13.633A38.158 38.158 0 0 0 40.945 8.024 38.156 38.156 0 0 0 5.157 32.946c6.97-8.146 20.382-13.633 35.788-13.633Z" fill="#F37726"/><path d="M19.831 87.992a7.277 7.277 0 1 1-7.584-6.817 7.209 7.209 0 0 1 7.584 6.817Z" fill="#9E9E9E"/><path d="M6.9 17.461a4.193 4.193 0 1 1 4.073-4.363A4.243 4.243 0 0 1 6.9 17.461Z" fill="#616262"/></svg>