<svg width="96" height="96" viewBox="0 0 3.84 3.84" xmlns="http://www.w3.org/2000/svg"><path d="M.878 2.238a.066.066 0 0 1-.072.028.11.11 0 0 0-.104.01c-.037.026-.076.006-.069-.041a.147.147 0 0 1 .07-.117c.1-.057.03-.097.085-.155s.043-.075.041-.154a.558.558 0 0 1-.408-.228.721.721 0 0 1-.175-.452.764.764 0 0 1 .078-.456A.638.638 0 0 1 .632.37a.843.843 0 0 1 .419-.092.595.595 0 0 1 .293.054.618.618 0 0 0 .186.096.146.146 0 0 0 .094-.027c.006.143-.123.155-.238.158S1.2.514 1.095.532a.503.503 0 0 0-.364.213.454.454 0 0 0-.082.323.234.234 0 0 0 .173.216c.06.001.073-.016.126-.051s.32-.365.411-.44a.423.423 0 0 1 .279-.099.389.389 0 0 1 .201.034 1.473 1.473 0 0 1 .189.129A1.06 1.06 0 0 0 2.11.788a.344.344 0 0 1 .287-.086.437.437 0 0 1 .218.096 1.717 1.717 0 0 1 .242.291.431.431 0 0 0 .195.179c.093.028.162-.091.172-.158a.698.698 0 0 0 .013-.112.53.53 0 0 0-.016-.135.48.48 0 0 0-.055-.122.433.433 0 0 0-.156-.15.495.495 0 0 0-.166-.051 1.641 1.641 0 0 0-.168.024c-.07.005-.195.021-.25-.034a.142.142 0 0 1-.045-.102.107.107 0 0 0 .056.023c.044.004.085-.032.12-.053a.881.881 0 0 1 .109-.063.703.703 0 0 1 .324-.028.757.757 0 0 1 .264.087.72.72 0 0 1 .196.178.598.598 0 0 1 .124.256 1.078 1.078 0 0 1 .002.462.909.909 0 0 1-.206.338.527.527 0 0 1-.278.133.589.589 0 0 0 .01.059c.008.025.023.052.053.044a.028.028 0 0 1 .035.008c.016.014.008.068-.037.092a.174.174 0 0 1-.083.016.793.793 0 0 1-.133-.006c-.04-.007-.063-.038-.107-.043a.429.429 0 0 1-.174-.092.366.366 0 0 0-.043-.022c.007.022.017.044.021.065s.003.04.005.057.007.03.01.043c.011.01.014.024.033.029a.205.205 0 0 0 .066-.005c.019-.003.031-.013.046-.01a.102.102 0 0 1 .041.023c.012.01.023.011.033.036a.4.4 0 0 1 .021.108.232.232 0 0 1-.012.091.151.151 0 0 1-.046.065.712.712 0 0 1-.115.092.198.198 0 0 0 .024.036c.012.013.039.027.051.041a.057.057 0 0 1 .018.039.082.082 0 0 1-.013.052.228.228 0 0 1-.112.069.297.297 0 0 1 .003.127c-.004.019-.014.062-.038.073a.459.459 0 0 1-.098.01l-.067.013a.396.396 0 0 0-.041.059.048.048 0 0 0 .001.042c.006.018.026.044.031.065a.131.131 0 0 1 .001.065.113.113 0 0 1-.032.055c-.018.019-.054.034-.071.049s-.035.017-.03.042a.186.186 0 0 0 .094.104.111.111 0 0 0 .078-.006c-.002.03-.027.049-.044.069a.264.264 0 0 0 .12-.071.299.299 0 0 1-.09.115.345.345 0 0 1-.072.048.318.318 0 0 0 .119 0 .236.236 0 0 1-.09.029.264.264 0 0 1-.102-.008.684.684 0 0 1-.114-.065.094.094 0 0 0 .026.053.343.343 0 0 0 .077.04 1.129 1.129 0 0 1-.116-.014.268.268 0 0 1-.067-.023.438.438 0 0 1-.054-.037.155.155 0 0 0 .026.049.236.236 0 0 0 .058.028.252.252 0 0 1-.06-.001.169.169 0 0 1-.062-.029.444.444 0 0 1-.062-.056.259.259 0 0 1-.048-.065c-.007-.018.004-.031.006-.047a.148.148 0 0 0-.038.025.048.048 0 0 0-.014.044.295.295 0 0 0 .038.071c-.041-.034-.064-.047-.074-.087a.137.137 0 0 1 .033-.102c.009-.014.022-.028.031-.041a.56.56 0 0 1-.056-.055c-.016-.021-.023-.049-.039-.069a.409.409 0 0 0-.057-.049.75.75 0 0 1 .05.108.072.072 0 0 1-.017.06c-.01.015-.026.018-.041.028s-.039.002-.048.016a.047.047 0 0 0-.003.048l.036.056a.171.171 0 0 1-.046-.039c-.01-.014-.026-.026-.028-.045a.065.065 0 0 1 .009-.051c.012-.016.045-.022.059-.034s.023-.021.022-.037-.017-.028-.03-.038a.993.993 0 0 1-.131-.098.13.13 0 0 1-.034-.053.055.055 0 0 1 .01-.044c.01-.018.044-.042.048-.062s-.013-.024-.029-.031-.045.003-.06-.009.004-.037-.012-.051-.053-.006-.072-.021a.1.1 0 0 1-.034-.055.117.117 0 0 1-.003-.061c.005-.016.018-.018.026-.027s.015-.015.004-.027-.046.001-.067-.015-.008-.053-.022-.069-.04-.009-.054-.015-.019.013-.027-.015-.009-.112-.02-.143-.033-.002-.044-.033a.85.85 0 0 1-.005-.127l-.021-.127c-.073.049-.304.112-.324.148" style="fill:#fff"/><path d="M1.995.991a.448.448 0 0 0 .009.113.109.109 0 0 0 .046.079c.055.041.091.034.134.058a.122.122 0 0 1 .054.051.044.044 0 0 1-.02.051.043.043 0 0 0 .045-.058c-.006-.015-.036-.022-.045-.038a.059.059 0 0 1-.005-.047c.008-.028.064-.054.084-.076a.093.093 0 0 0 .025-.108.34.34 0 0 0-.174-.137.385.385 0 0 0-.06-.018.198.198 0 0 1 .105.097c.017.045.002.062.003.101 0 .018.024.027.035.039s.008.017.001.031a.036.036 0 0 0-.016-.028c-.016-.011-.033-.009-.041-.032-.013-.035.012-.068-.016-.107a.123.123 0 0 0-.087-.063.152.152 0 0 0-.051.008L1.995.876a.551.551 0 0 0-.161-.119.364.364 0 0 0-.193-.036.368.368 0 0 0-.264.093c-.097.084-.347.404-.408.444a.204.204 0 0 1-.15.054.255.255 0 0 1-.199-.24.485.485 0 0 1 .087-.343.501.501 0 0 1 .387-.228 1.443 1.443 0 0 1 .293.028c.093 0 .184-.016.211-.089a.125.125 0 0 1-.081.014.809.809 0 0 1-.197-.1.628.628 0 0 0-.275-.045.758.758 0 0 0-.386.08.692.692 0 0 0-.31.297.704.704 0 0 0-.078.438.728.728 0 0 0 .171.434.535.535 0 0 0 .395.214l.039-.174-.07.101.002-.112-.064.079-.028-.107-.052.086-.026-.12-.075.06.024-.099-.099.011.045-.069-.09.001.053-.092-.08-.013.064-.082-.098-.029.081-.078-.079-.065.063-.049L.388.943.451.87.428.774.48.728l.016-.11.06-.03.051-.086.094-.01.047-.077.095.005.09-.049.093.022.106-.032.078.018.102.015.099.079L1.26.42l-.076.037-.063-.039-.043.03-.077.008L.932.452l-.05.061-.101.002-.036.083L.654.63.645.725.58.776.6.864.544.957l.043.081-.043.074.057.037-.013.119.079.02.018.089.086-.009.053.061.066-.064a.738.738 0 0 0 .263-.195 1.234 1.234 0 0 1 .31-.301.414.414 0 0 1 .299-.057c.107.018.143.083.222.151a.075.075 0 0 1 .024-.03.53.53 0 0 0-.013.059Zm.56.712a.085.085 0 0 1-.024.017.285.285 0 0 1-.041.01c.021.032.043.065.063.099s.037.071.056.107a.589.589 0 0 0-.003-.061.602.602 0 0 0-.02-.064l-.031-.108Zm-.007-.186a.061.061 0 0 1 .02.011.078.078 0 0 1 .031.032.123.123 0 0 1 .006.056c-.007-.002-.016-.001-.023-.007s-.011-.019-.02-.025a.053.053 0 0 0-.026-.006.083.083 0 0 1 .005.042.052.052 0 0 1-.049.046.16.16 0 0 1-.041-.004c.005.011.013.02.018.031a.221.221 0 0 0 .053-.009.392.392 0 0 1 .041-.024.261.261 0 0 1 .047-.008c-.014.012-.023.024-.036.035l.03.087c.021.013.041.02.068.037a.88.88 0 0 0 .094.062.346.346 0 0 0 .092.032c.036.007.065.036.101.041a.772.772 0 0 0 .13.003c.031-.003.072-.019.076-.054a.072.072 0 0 1-.087-.049c-.009-.022-.005-.062-.018-.088s-.033-.034-.056-.066a1.002 1.002 0 0 1-.081-.125c-.021-.043-.026-.091-.044-.13a.634.634 0 0 0-.066-.099.35.35 0 0 0-.157-.142.768.768 0 0 0-.116-.03c-.016.007-.037.015-.041.033a.075.075 0 0 0 .017.059.252.252 0 0 1 .068.084.33.33 0 0 1 .004.123.138.138 0 0 1-.039.05Zm-.174.021a.298.298 0 0 1 .102-.029c.015-.001.039.001.054.002a.204.204 0 0 0 .036-.056.302.302 0 0 0-.005-.099c-.021-.051-.041-.053-.069-.082a.162.162 0 0 1-.028-.089c-.002-.013-.009-.03-.012-.044a.557.557 0 0 0-.12-.006.131.131 0 0 0 .047-.068.134.134 0 0 0-.016-.094.364.364 0 0 0-.069-.072C2.269.879 2.233.861 2.21.843A.694.694 0 0 1 2.302.81a.3.3 0 0 1 .221.054.552.552 0 0 1 .126.1c.046.048.103.136.148.189a.945.945 0 0 0 .12.125.597.597 0 0 0 .111.06l.058.061.047-.058.075.009.015-.084.069-.019-.011-.114.05-.035-.037-.071.038-.077-.049-.088.019-.085-.057-.049-.007-.09-.08-.03-.032-.079-.09-.001L2.992.47l-.06.004-.067-.007-.038-.028-.055.036L2.705.44l-.133.05.087-.075.09-.014.068-.017.093.03.082-.021.079.047.083-.005.041.073.083.009.045.082.052.028.014.105.046.044-.02.091.055.069-.051.074.055.046-.07.062.071.074-.086.028.056.079-.07.012.046.087-.079-.001.04.065-.087-.01.021.094-.066-.058-.022.114-.045-.082-.024.102-.056-.075.001.107-.062-.096a.437.437 0 0 0 .046.166.422.422 0 0 0 .269-.125.86.86 0 0 0 .195-.329 1.117 1.117 0 0 0 .001-.434.654.654 0 0 0-.125-.253.956.956 0 0 0-.2-.174.744.744 0 0 0-.384-.083.455.455 0 0 0-.161.03c-.074.027-.133.086-.208.115a.072.072 0 0 1-.064 0 .119.119 0 0 0 .087.069.656.656 0 0 0 .172-.002 1.082 1.082 0 0 1 .174-.023.372.372 0 0 1 .178.051.439.439 0 0 1 .168.158.48.48 0 0 1 .054.129.608.608 0 0 1 .018.141.432.432 0 0 1-.013.124c-.025.094-.082.189-.197.174-.071-.009-.177-.142-.213-.19a1.884 1.884 0 0 0-.236-.288.364.364 0 0 0-.205-.091.309.309 0 0 0-.286.099.553.553 0 0 1 .064.02.478.478 0 0 1 .131.086.143.143 0 0 1 .06.116c.001.036-.029.065-.056.091-.017.016-.039.03-.052.043-.018.016-.04.034-.018.06a.226.226 0 0 0 .036.026c.02.015.011.069-.015.083a.085.085 0 0 1-.1-.008c.034-.005.056-.01.055-.038 0-.016-.021-.03-.042-.039a.592.592 0 0 1-.135-.054c-.049-.036-.05-.055-.064-.111a.315.315 0 0 0-.078.014c-.032.01-.067.036-.096.042a.206.206 0 0 1-.127.001.509.509 0 0 0-.252.042.71.71 0 0 0-.117.015.77.77 0 0 0-.204.119 1.09 1.09 0 0 0-.238.487c-.006.068.013.115-.03.148s-.042.119-.057.143-.032.013-.063.047-.048.028-.047.092a.221.221 0 0 1 .101-.04c.031-.001.031.039.11-.039.042-.042.123-.043.18-.061a.568.568 0 0 0 .262-.169.674.674 0 0 0 .17-.406.478.478 0 0 1-.005.15.417.417 0 0 0 .018.293l.037.071a.622.622 0 0 1-.078-.114l-.03-.081a.607.607 0 0 1-.176.199.35.35 0 0 0 .011.14c.015.045-.009.096.003.126s.039.013.047.043-.005.089.009.118.047.012.063.021a.093.093 0 0 1 .03.035c.009.012-.003.042.014.051s.045.001.063.011a.043.043 0 0 1 .017.051c-.004.02-.024.029-.033.048a.051.051 0 0 0 .003.052.107.107 0 0 0 .056.038c.023.009.055.004.078.017a.184.184 0 0 1 .057.057.076.076 0 0 1 .015.051.143.143 0 0 1-.019.061c-.01.019-.033.042.003.078s.034.02.055.044c-.002-.04-.019-.073-.007-.103s.049-.036.068-.049a.315.315 0 0 0 .045-.048.538.538 0 0 1 0 .059c-.005.032-.014.06.033.065a.155.155 0 0 0 .064-.02c-.012.021-.032.038-.036.063a.11.11 0 0 0 .018.078.255.255 0 0 0 .07.058.267.267 0 0 0 .051.024c.001.025-.004.051-.001.075a.136.136 0 0 0 .024.063.208.208 0 0 0 .056.045c-.011-.026-.034-.051-.034-.078a.088.088 0 0 1 .035-.071c.027-.024.09-.046.119-.069a.146.146 0 0 0 .05-.061.268.268 0 0 0 .01-.081.244.244 0 0 1 .014.068.241.241 0 0 1-.027.095.146.146 0 0 0 .072-.073c.008.005.004.017.007.042.013-.013.028-.023.041-.035a.114.114 0 0 0 .034-.04.092.092 0 0 0-.001-.055.371.371 0 0 0-.039-.065c-.012-.022.002-.043.001-.069a.207.207 0 0 0-.072-.012c-.027.004-.059.035-.087.035s-.044-.026-.067-.033a.409.409 0 0 0-.069-.01.642.642 0 0 1 .221-.054 1.395 1.395 0 0 1 .206-.019.527.527 0 0 0 .092.004c.021-.006.017-.021.023-.037a.208.208 0 0 0-.001-.129 1.005 1.005 0 0 0-.186-.015c-.061.005-.134.034-.197.036a.38.38 0 0 1-.184-.039.436.436 0 0 1-.118-.135c-.026-.039-.058-.117-.078-.152a.194.194 0 0 0-.041-.06.181.181 0 0 0-.059-.024c.023.002.047-.005.068.007.031.018.065.091.084.123.02-.068.015-.095.074-.133a.258.258 0 0 0-.06.155c.039.064.094.167.165.196a.469.469 0 0 0 .098.02.709.709 0 0 0 .256-.038.67.67 0 0 1 .201-.005c.026.001.086-.014.099-.04a.046.046 0 0 0-.004-.046c-.01-.015-.036-.022-.05-.036a.32.32 0 0 1-.033-.044.902.902 0 0 1-.149.017c.031-.013.06-.02.093-.033a.552.552 0 0 0 .094-.05.303.303 0 0 0 .061-.047.376.376 0 0 0 .057-.065.169.169 0 0 0 .017-.082.244.244 0 0 0-.012-.097.076.076 0 0 0-.052-.037c-.018-.006-.03.009-.049.011s-.036.014-.063.001a.236.236 0 0 1-.086-.077c-.027-.038-.047-.101-.075-.15a2.544 2.544 0 0 0-.165-.238.485.485 0 0 1-.014-.071.343.343 0 0 1 .009-.136.118.118 0 0 1 .061-.083.068.068 0 0 1 .045-.003.03.03 0 0 1 .02.035c-.005.018-.018.019-.027.028a.097.097 0 0 0-.026.046.219.219 0 0 1 .049.002.058.058 0 0 1 .041.039.073.073 0 0 0-.055-.026.247.247 0 0 0-.038.006.273.273 0 0 1-.014.046c-.007.012-.02.009-.024.023a.134.134 0 0 0-.003.055Zm.066.024c-.025.002-.031-.002-.051.012l.033.051a.078.078 0 0 1 .018-.063Zm-.849-.223a.097.097 0 0 1 .004-.023c-.036-.01-.051.014-.072.057-.008.016 0 .026-.009.037s-.022.009-.036.02-.028.03-.041.041a.451.451 0 0 1-.093.05.304.304 0 0 0 .075-.062c.007-.012.006-.034.017-.045s.015-.018.029-.021.008-.019.013-.032a.138.138 0 0 1 .023-.035.102.102 0 0 1 .041-.039c.019-.007.049 0 .063-.003s.006-.015.017-.021.031-.003.045-.01a.137.137 0 0 0 .051-.053.271.271 0 0 1-.016.12.177.177 0 0 1-.09.107.286.286 0 0 1-.051.019c.009-.012.021-.017.026-.036a.451.451 0 0 0 .002-.072Zm.232.179c.019-.002.042.003.06.002a.318.318 0 0 0 .045-.008c-.003-.027 0-.075-.025-.093a.214.214 0 0 0-.098.001.916.916 0 0 0-.122.046.38.38 0 0 1 .111-.062.291.291 0 0 1 .114-.011c.012.003.015.008.022.019a.217.217 0 0 1 .032.108.303.303 0 0 1 .019.027.132.132 0 0 1 .01.041c-.007-.01-.003-.022-.021-.029a.181.181 0 0 0-.072.002.061.061 0 0 1-.028.112.065.065 0 0 1-.077-.04.119.119 0 0 1-.003-.048.095.095 0 0 0-.083.031.156.156 0 0 0 .063.061.202.202 0 0 0 .06.022.302.302 0 0 0 .081.004.088.088 0 0 0 .053-.026.125.125 0 0 0 .025-.056.164.164 0 0 1-.01.052.094.094 0 0 1-.093.049.342.342 0 0 1-.122-.024.185.185 0 0 1-.088-.075.216.216 0 0 1-.002-.067c.04-.026.05-.02.097-.028.02-.003.033-.011.052-.012Zm.108-.262a.178.178 0 0 0 .063.025c.018 0 .022-.012.033-.018a.789.789 0 0 0 .063.16c.012.02.019.011.028.031s.013.062.021.088a.709.709 0 0 0 .029.068.927.927 0 0 1-.07-.108c-.014-.029-.005-.031-.016-.059s-.033-.071-.05-.106a.099.099 0 0 1-.036.001c-.009-.003-.007-.012-.015-.019s-.022-.004-.034-.014a.071.071 0 0 1-.015-.049Zm-.236.931c.017-.013.061-.003.095 0l-.072.018c-.002.008-.001.018-.007.024s-.016.009-.024.014c.001-.021-.009-.044.008-.057Zm.309-.448a.315.315 0 0 0 .025-.072c-.003.03.003.063-.012.085s-.041.018-.062.024c.017-.013.036-.018.049-.037Zm-.03.336a.12.12 0 0 1 .06-.108.257.257 0 0 1 .085-.03.33.33 0 0 1 .142.019.847.847 0 0 1 .084.055c.029.017.049.028.076.047.042.029.066.061.096.081a.212.212 0 0 0 .052.014.088.088 0 0 1-.049.004.219.219 0 0 1-.062-.037.422.422 0 0 0-.069-.05c-.017-.01-.046-.022-.065-.034s-.052-.04-.07-.049a.227.227 0 0 0-.091-.018.193.193 0 0 0-.115.032.077.077 0 0 0-.032.079.359.359 0 0 1 .028-.036.087.087 0 0 1 .073-.016.064.064 0 0 1 .055.05.132.132 0 0 0-.029-.019.069.069 0 0 0-.061.006c-.025.013-.018.033-.022.056a.212.212 0 0 1-.008.028.054.054 0 0 1-.025-.014.179.179 0 0 0 .001.031.383.383 0 0 0 .012.038.225.225 0 0 1-.047-.056.148.148 0 0 1-.018-.072Zm.227.038a.118.118 0 0 1 .053.014.205.205 0 0 1 .038.027.223.223 0 0 1 .06.105.633.633 0 0 1 .009.089.572.572 0 0 0-.027-.082.202.202 0 0 0-.094-.096.05.05 0 0 0-.03-.004c.003.006.009.01.009.019a.032.032 0 0 1-.016.031.059.059 0 0 1-.065-.012.058.058 0 0 1-.014-.064c.011-.027.053-.027.077-.026ZM.952 2.19a.087.087 0 0 0-.072.048.066.066 0 0 1-.072.028.11.11 0 0 0-.104.01c-.037.026-.076.006-.069-.041a.147.147 0 0 1 .07-.117c.1-.057.03-.097.085-.155s.043-.075.041-.154a.558.558 0 0 1-.408-.228.722.722 0 0 1-.179-.453.763.763 0 0 1 .078-.456A.638.638 0 0 1 .63.369a.843.843 0 0 1 .419-.092.595.595 0 0 1 .293.054.618.618 0 0 0 .185.096A.146.146 0 0 0 1.621.4c.006.143-.123.155-.238.158S1.197.513 1.092.531a.503.503 0 0 0-.363.213.454.454 0 0 0-.08.322.234.234 0 0 0 .173.216c.06.001.073-.016.126-.051s.32-.365.411-.439a.422.422 0 0 1 .279-.099.388.388 0 0 1 .201.034 1.474 1.474 0 0 1 .189.128A1.022 1.022 0 0 0 2.11.786.344.344 0 0 1 2.397.7a.437.437 0 0 1 .218.096 1.714 1.714 0 0 1 .242.291.431.431 0 0 0 .195.179c.093.028.162-.091.172-.158a.694.694 0 0 0 .013-.112.527.527 0 0 0-.016-.135.481.481 0 0 0-.055-.122.432.432 0 0 0-.156-.15.496.496 0 0 0-.167-.051 1.636 1.636 0 0 0-.168.024c-.07.005-.195.021-.25-.034A.142.142 0 0 1 2.38.426a.107.107 0 0 0 .056.023c.044.004.085-.032.12-.053a.864.864 0 0 1 .109-.063.703.703 0 0 1 .324-.028.758.758 0 0 1 .264.087.721.721 0 0 1 .196.178.599.599 0 0 1 .124.258 1.079 1.079 0 0 1 .002.462.91.91 0 0 1-.206.338.527.527 0 0 1-.278.133c.004.021.005.041.01.058.008.025.023.052.053.044a.028.028 0 0 1 .035.007c.016.014.008.068-.037.092a.173.173 0 0 1-.083.016.782.782 0 0 1-.133-.006c-.04-.007-.063-.038-.107-.043a.429.429 0 0 1-.174-.092.368.368 0 0 0-.043-.022c.007.022.016.044.021.065s.003.04.005.057.007.03.01.043c.011.01.014.024.033.029a.203.203 0 0 0 .066-.005c.019-.003.031-.013.046-.01a.102.102 0 0 1 .041.023c.012.01.023.011.033.036a.404.404 0 0 1 .02.108.231.231 0 0 1-.012.091.15.15 0 0 1-.046.065.711.711 0 0 1-.115.092.203.203 0 0 0 .024.036c.012.013.039.027.051.041a.057.057 0 0 1 .018.039.083.083 0 0 1-.013.052.228.228 0 0 1-.112.069.298.298 0 0 1 .003.127c-.004.019-.014.062-.038.073a.457.457 0 0 1-.098.01l-.067.013a.397.397 0 0 0-.041.059.048.048 0 0 0 .001.042c.006.018.026.044.031.065a.131.131 0 0 1 .001.065.114.114 0 0 1-.032.055c-.018.019-.054.033-.071.049s-.035.017-.03.042a.186.186 0 0 0 .094.104.112.112 0 0 0 .078-.006c-.002.03-.027.049-.044.069a.264.264 0 0 0 .12-.07.298.298 0 0 1-.09.114.343.343 0 0 1-.072.048.316.316 0 0 0 .119 0 .236.236 0 0 1-.09.029.263.263 0 0 1-.102-.008.686.686 0 0 1-.114-.065.094.094 0 0 0 .026.053.342.342 0 0 0 .077.04 1.152 1.152 0 0 1-.116-.014.273.273 0 0 1-.067-.023.456.456 0 0 1-.054-.037.156.156 0 0 0 .026.049.234.234 0 0 0 .058.028.252.252 0 0 1-.06-.001.169.169 0 0 1-.062-.029.445.445 0 0 1-.063-.056.258.258 0 0 1-.048-.065c-.007-.018.004-.031.006-.047a.146.146 0 0 0-.038.025.048.048 0 0 0-.014.045.294.294 0 0 0 .038.071c-.041-.034-.064-.047-.074-.087a.137.137 0 0 1 .033-.102c.009-.014.022-.028.031-.041a.556.556 0 0 1-.056-.055c-.016-.021-.023-.049-.039-.069a.412.412 0 0 0-.057-.049.741.741 0 0 1 .05.108.072.072 0 0 1-.017.06c-.01.015-.026.018-.041.028s-.039.002-.048.016a.047.047 0 0 0-.003.048l.036.056a.17.17 0 0 1-.046-.039c-.01-.014-.026-.026-.028-.045a.065.065 0 0 1 .009-.051c.012-.016.045-.022.059-.034s.023-.021.022-.037-.017-.028-.03-.038a.998.998 0 0 1-.131-.098.131.131 0 0 1-.034-.053.055.055 0 0 1 .01-.044c.01-.018.044-.042.048-.062s-.013-.024-.029-.031-.045.003-.06-.009.004-.037-.012-.051-.053-.006-.072-.021a.101.101 0 0 1-.034-.055.116.116 0 0 1-.003-.061c.004-.016.018-.018.026-.027s.015-.015.004-.027-.046.001-.067-.015-.008-.053-.022-.069-.04-.01-.054-.015-.019.013-.027-.015-.009-.111-.02-.143-.033-.002-.044-.033a.861.861 0 0 1-.005-.127l-.021-.127a.449.449 0 0 1-.2.078 1.3 1.3 0 0 0 .041.519c.065.213.197.339.375.519a1.093 1.093 0 0 1-.417-.503 1.175 1.175 0 0 1-.05-.513" style="fill:#030303"/></svg>