<svg width="96" height="96" viewBox="0 0 96 96" xmlns="http://www.w3.org/2000/svg"><path style="fill:#13aa52" d="M96 48a48 48 0 0 1-48 48A48 48 0 0 1 0 48a48 48 0 0 1 96 0z"/><path d="M60.831 42.135c-3.032-13.381-10.197-17.781-10.969-19.462-.844-1.186-1.699-3.295-1.699-3.295-.014-.036-.037-.098-.063-.159-.087 1.186-.132 1.643-1.253 2.84-1.736 1.357-10.644 8.832-11.369 24.035-.676 14.179 10.242 22.628 11.719 23.705l.168.119v-.01c.009.071.469 3.375.791 6.876h1.157a68.126 68.126 0 0 1 1.219-7.362l.094-.061a19.17 19.17 0 0 0 1.885-1.542l.068-.061c3.139-2.9 8.782-9.607 8.726-20.3a32.538 32.538 0 0 0-.473-5.321zM48.033 61.793s0-19.886.656-19.883c.512 0 1.175 25.651 1.175 25.651-.911-.11-1.831-4.222-1.831-5.768z" style="fill:#fff"/></svg>