<svg width="96" height="96" viewBox="0 0 3.84 3.84" xmlns="http://www.w3.org/2000/svg"><path d="m2.563.987.101-.352A.199.199 0 0 0 2.849.44a.203.203 0 0 0-.406 0 .195.195 0 0 0 .099.168l-.1.345a2.236 2.236 0 0 0-.523-.065l-.044.019v2.679l.044.014c.268 0 1.438-.782 1.441-1.621 0-.601-.413-.871-.797-.992Z" style="fill:#d06e35"/><path d="M2.281 2.712c-.228-.353-.132-1.174.465-1.291a.389.389 0 0 1 .423.309c.149.49-.728 1.175-.888.982Z" style="fill:#fff"/><path d="M2.639 1.956a.179.179 0 1 0 .185.179.182.182 0 0 0-.185-.179Z" style="fill:#d06e35"/><path d="M2.694 2.121a.045.045 0 1 1 .047-.045.046.046 0 0 1-.047.045Z" style="fill:#fff"/><path d="M1.393.961 1.294.602a.194.194 0 0 0 .094-.165.203.203 0 0 0-.406 0 .199.199 0 0 0 .202.196l.099.36c-.385.123-.803.394-.803.986C.489 2.835 1.651 3.6 1.919 3.6V.888a2.286 2.286 0 0 0-.525.073Z" style="fill:#f17b36"/><path d="M1.597 2.712C1.437 2.906.56 2.22.709 1.73a.389.389 0 0 1 .424-.309c.597.117.693.939.465 1.292Z" style="fill:#fff"/><path d="M1.228 1.961a.179.179 0 1 0 .185.179.182.182 0 0 0-.185-.179Z" style="fill:#f17b36"/><path d="M1.172 2.126a.045.045 0 1 1 .047-.045.046.046 0 0 1-.047.045Z" style="fill:#fff"/></svg>