<svg width="240" height="240" viewBox="0 0 240 240" fill="none" xmlns="http://www.w3.org/2000/svg"><g clip-path="url(#a)"><path d="M220 0H20C8.954 0 0 8.954 0 20v200c0 11.046 8.954 20 20 20h200c11.046 0 20-8.954 20-20V20c0-11.046-8.954-20-20-20Z" fill="url(#b)"/><path d="m58.267 185.12 1.046 7.236 1.552-6.532 10.863-38.31h6.1l10.592 38.31 1.516 6.641 1.173-7.399 8.517-37.552h7.272l-13.317 54.894h-6.604l-11.315-40.006-.866-4.187-.866 4.187-11.73 40.006h-6.604l-13.263-54.894h7.236l8.68 37.588.018.018Zm63.897-4.186v21.492h-7.236v-54.894h20.247c6.009 0 10.719 1.534 14.111 4.602 3.411 3.068 5.107 7.128 5.107 12.18 0 5.324-1.66 9.438-4.999 12.307-3.338 2.887-8.102 4.313-14.309 4.313h-12.939.018Zm0-5.919h13.011c3.861 0 6.839-.92 8.896-2.743 2.057-1.822 3.086-4.457 3.086-7.903 0-3.267-1.029-5.883-3.086-7.85-2.057-1.967-4.89-2.978-8.481-3.068h-13.426v21.564Zm71.748 3.176h-23.044v24.235h-7.236v-54.894h34.015v5.919h-26.761v18.821h23.044v5.919h-.018ZM44.65 114.72h-.096c-6.332 0-12.607-1.511-18.135-4.323l-2.87-1.454 40.804-61.578c6.255-9.431 17.37-15.4 29.708-15.954.325 0 .688-.02 1.052-.038h.956c.383 0 .766 0 1.148.019l1.09.038c13.162.689 23.377 6.274 29.651 16.145 6.198 11.038 24.295 40.249 34.529 44.515 5.662 2.372 12.721 3.634 12.779 3.653l-.995 5.644c-.306-.058-7.729-1.397-14.003-3.999-13.907-5.796-34.892-42.697-37.245-46.886C116.5 40.23 105.845 37.571 98.078 37.15h-1.014a13.24 13.24 0 0 0-1.243-.058h-.46c-.42 0-.726.02-1.032.038-10.35.479-19.608 5.3-24.907 12.951a32.176 32.176 0 0 1 5.452-.67c14.997-.65 23.185 12.32 23.53 12.875l1.32 2.123-1.608 1.34-21.846 32.94c-6.561 9.871-18.67 16.012-31.62 16.012v.019Zm-12.684-8.111c3.96 1.549 8.264 2.353 12.587 2.372h.096c11.057 0 21.33-5.146 26.839-13.429l20.985-31.64c-2.334-2.889-8.36-9.087-17.35-8.742-5.472.23-9.03 1.836-11.057 3.137l-.039-.058-32.06 48.36Z" fill="#fff"/><path d="M148.312 119.311c-15.476 0-22.936-9.278-28.465-16.126l-1.109-1.378c-.478-.573-1.32-1.702-2.391-3.156-4.324-5.853-22-32.138-22.745-33.247l4.763-3.195c.191.268 18.345 27.279 22.611 33.037.995 1.34 1.779 2.391 2.219 2.927l1.129 1.396c5.547 6.868 11.86 14.654 25.767 13.946 8.895-.459 16.566-7.423 20.794-13.773l37.149-56.05c-3.959-1.55-8.264-2.353-12.606-2.372h-.077c-9.698 0-18.498 5.26-27.68 16.585-2.965 3.654-5.586 8.245-8.111 12.664-2.831 4.974-5.758 10.1-9.316 14.213l-4.342-3.75c3.194-3.691 5.853-8.359 8.684-13.313 2.64-4.63 5.376-9.431 8.647-13.448 10.215-12.588 20.736-18.69 32.138-18.69h.076a40.34 40.34 0 0 1 18.154 4.323l2.869 1.454-40.803 61.559c-6.466 9.756-15.916 15.858-25.27 16.337-.708.038-1.396.057-2.066.057h-.019Z" fill="#fff"/></g><defs><linearGradient id="b" x1="4.4" y1=".1" x2="230.56" y2="234.66" gradientUnits="userSpaceOnUse"><stop stop-color="#08C"/><stop offset=".63" stop-color="#0D6EB2"/><stop offset="1" stop-color="#175EA1"/></linearGradient><clipPath id="a"><path fill="#fff" d="M0 0h240v240H0z"/></clipPath></defs></svg>